HIERARCHY
ROOT hip
{
  OFFSET 0 0 0
  CHANNELS 6 Xposition Yposition Zposition Zrotation Yrotation Xrotation
  JOINT abdomen
  {
    OFFSET 0 20.6881 -0.73152
    CHANNELS 3 Zrotation Xrotation Yrotation
    JOINT chest
    {
      OFFSET 0 11.7043 -0.48768
      CHANNELS 3 Zrotation Xrotation Yrotation
      JOINT neck
      {
        OFFSET 0 22.1894 -2.19456
        CHANNELS 3 Zrotation Xrotation Yrotation
        JOINT head
        {
          OFFSET -0.24384 7.07133 1.2192
          CHANNELS 3 Zrotation Xrotation Yrotation
          JOINT leftEye
          {
            OFFSET 4.14528 8.04674 8.04672
            CHANNELS 3 Zrotation Xrotation Yrotation
            End Site
            {
              OFFSET 1 0 0
            }
          }
          JOINT rightEye
          {
            OFFSET -3.6576 8.04674 8.04672
            CHANNELS 3 Zrotation Xrotation Yrotation
            End Site
            {
              OFFSET 1 0 0
            }
          }
        }
      }
      JOINT rCollar
      {
        OFFSET -2.68224 19.2634 -4.8768
        CHANNELS 3 Zrotation Xrotation Yrotation
        JOINT rShldr
        {
          OFFSET -8.77824 -1.95073 1.46304
          CHANNELS 3 Zrotation Xrotation Yrotation
          JOINT rForeArm
          {
            OFFSET -28.1742 -1.7115 0.48768
            CHANNELS 3 Zrotation Xrotation Yrotation
            JOINT rHand
            {
              OFFSET -22.5879 0.773209 7.07136
              CHANNELS 3 Zrotation Xrotation Yrotation
              JOINT rThumb1
              {
                OFFSET -1.2192 -0.487915 3.41376
                CHANNELS 3 Zrotation Xrotation Yrotation
                JOINT rThumb2
                {
                  OFFSET -3.37035 -0.52449 3.41376
                  CHANNELS 3 Zrotation Xrotation Yrotation
                  End Site
                  {
                    OFFSET -1.78271 -1.18214 1.43049
                  }
                }
              }
              JOINT rIndex1
              {
                OFFSET -7.75947 0.938293 5.60832
                CHANNELS 3 Zrotation Xrotation Yrotation
                JOINT rIndex2
                {
                  OFFSET -2.54057 -0.884171 1.56538
                  CHANNELS 3 Zrotation Xrotation Yrotation
                  End Site
                  {
                    OFFSET -1.62519 -0.234802 1.16502
                  }
                }
              }
              JOINT rMid1
              {
                OFFSET -8.24714 1.18213 3.41376
                CHANNELS 3 Zrotation Xrotation Yrotation
                JOINT rMid2
                {
                  OFFSET -3.10165 -0.590103 1.0647
                  CHANNELS 3 Zrotation Xrotation Yrotation
                  End Site
                  {
                    OFFSET -2.48547 -0.328903 0.83742
                  }
                }
              }
              JOINT rRing1
              {
                OFFSET -8.82822 0.546677 1.51678
                CHANNELS 3 Zrotation Xrotation Yrotation
                JOINT rRing2
                {
                  OFFSET -2.60934 -0.819778 -0.0198488
                  CHANNELS 3 Zrotation Xrotation Yrotation
                  End Site
                  {
                    OFFSET -2.33842 -0.294052 0.168128
                  }
                }
              }
              JOINT rPinky1
              {
                OFFSET -8.27202 -0.0477905 -0.4584
                CHANNELS 3 Zrotation Xrotation Yrotation
                JOINT rPinky2
                {
                  OFFSET -1.82734 -0.647385 -0.700984
                  CHANNELS 3 Zrotation Xrotation Yrotation
                  End Site
                  {
                    OFFSET -1.69225 -0.51767 -0.607171
                  }
                }
              }
            }
          }
        }
      }
      JOINT lCollar
      {
        OFFSET 2.68224 19.2634 -4.8768
        CHANNELS 3 Zrotation Xrotation Yrotation
        JOINT lShldr
        {
          OFFSET 8.77824 -1.95073 1.46304
          CHANNELS 3 Zrotation Xrotation Yrotation
          JOINT lForeArm
          {
            OFFSET 28.1742 -1.7115 0.48768
            CHANNELS 3 Zrotation Xrotation Yrotation
            JOINT lHand
            {
              OFFSET 22.5879 0.773209 7.07136
              CHANNELS 3 Zrotation Xrotation Yrotation
              JOINT lThumb1
              {
                OFFSET 1.2192 -0.487915 3.41376
                CHANNELS 3 Zrotation Xrotation Yrotation
                JOINT lThumb2
                {
                  OFFSET 3.37035 -0.52449 3.41376
                  CHANNELS 3 Zrotation Xrotation Yrotation
                  End Site
                  {
                    OFFSET 1.78271 -1.18214 1.43049
                  }
                }
              }
              JOINT lIndex1
              {
                OFFSET 7.75947 0.938293 5.60832
                CHANNELS 3 Zrotation Xrotation Yrotation
                JOINT lIndex2
                {
                  OFFSET 2.54057 -0.884171 1.56538
                  CHANNELS 3 Zrotation Xrotation Yrotation
                  End Site
                  {
                    OFFSET 1.62519 -0.234802 1.16502
                  }
                }
              }
              JOINT lMid1
              {
                OFFSET 8.24714 1.18213 3.41376
                CHANNELS 3 Zrotation Xrotation Yrotation
                JOINT lMid2
                {
                  OFFSET 3.10165 -0.590103 1.0647
                  CHANNELS 3 Zrotation Xrotation Yrotation
                  End Site
                  {
                    OFFSET 2.48547 -0.328903 0.83742
                  }
                }
              }
              JOINT lRing1
              {
                OFFSET 8.82822 0.546677 1.51678
                CHANNELS 3 Zrotation Xrotation Yrotation
                JOINT lRing2
                {
                  OFFSET 2.60934 -0.819778 -0.0198488
                  CHANNELS 3 Zrotation Xrotation Yrotation
                  End Site
                  {
                    OFFSET 2.33842 -0.294052 0.168128
                  }
                }
              }
              JOINT lPinky1
              {
                OFFSET 8.27202 -0.0477905 -0.4584
                CHANNELS 3 Zrotation Xrotation Yrotation
                JOINT lPinky2
                {
                  OFFSET 1.82734 -0.647385 -0.700984
                  CHANNELS 3 Zrotation Xrotation Yrotation
                  End Site
                  {
                    OFFSET 1.69225 -0.51767 -0.607171
                  }
                }
              }
            }
          }
        }
      }
    }
  }
  JOINT rButtock
  {
    OFFSET -8.77824 4.35084 1.2192
    CHANNELS 3 Zrotation Xrotation Yrotation
    JOINT rThigh
    {
      OFFSET 0 -1.70687 -2.19456
      CHANNELS 3 Zrotation Xrotation Yrotation
      JOINT rShin
      {
        OFFSET 0 -36.8199 0.73152
        CHANNELS 3 Zrotation Xrotation Yrotation
        JOINT rFoot
        {
          OFFSET 0.73152 -45.1104 -5.12064
          CHANNELS 3 Zrotation Xrotation Yrotation
          End Site
          {
            OFFSET -1.1221 -3.69964 12.103
          }
        }
      }
    }
  }
  JOINT lButtock
  {
    OFFSET 8.77824 4.35084 1.2192
    CHANNELS 3 Zrotation Xrotation Yrotation
    JOINT lThigh
    {
      OFFSET 0 -1.70687 -2.19456
      CHANNELS 3 Zrotation Xrotation Yrotation
      JOINT lShin
      {
        OFFSET 0 -36.8199 0.73152
        CHANNELS 3 Zrotation Xrotation Yrotation
        JOINT lFoot
        {
          OFFSET -0.73152 -45.1104 -5.12064
          CHANNELS 3 Zrotation Xrotation Yrotation
          End Site
          {
            OFFSET 1.1221 -3.69964 12.103
          }
        }
      }
    }
  }
}
MOTION
Frames:	9
Frame Time:	0.00833333
63.1489 5.94961 134.749 -177.637 6.5147 178.91 13.8938 18.1146 -5.77479 3.4179 -11.5305 0.848146 -6.94896 12.0953 -2.8877 10.0791 -19.9927 -3.14502 -0.0 0.0 0.0 -0.0 0.0 0.0 -5.50662e-14 -9.63087e-15 -2.37084e-13 4.76149 -64.3307 87.9359 -12.1517 -5.55545 21.904 -0.162368 -11.3941 -1.62309 1.05603e-09 1.95454e-09 -4.22849e-10 1.8339e-09 3.38982e-09 -7.27532e-10 1.05604e-09 1.95454e-09 -4.22865e-10 7.73091 5.47488 0.417314 1.05603e-09 1.95452e-09 -4.22845e-10 2.90554 0.965183 0.102902 1.05604e-09 1.95454e-09 -4.22856e-10 10.2786 0.731801 0.0259123 1.05603e-09 1.95454e-09 -4.22852e-10 2.22167 -0.733487 -0.20892 -5.51138e-14 -9.62695e-15 -2.37157e-13 -5.46445 -69.0722 -82.9702 8.04944 -3.03755 -14.1911 0.375329 17.1724 -2.48899 -1.55288e-10 -2.14374e-09 1.76045e-10 -2.70535e-10 -3.71016e-09 3.0489e-10 -1.55298e-10 -2.14374e-09 1.76045e-10 -7.73091 5.47488 -0.417314 -1.5529e-10 -2.14374e-09 1.76036e-10 -2.90554 0.965183 -0.102902 -1.55297e-10 -2.14374e-09 1.76049e-10 -10.2786 0.731801 -0.0259123 -1.55284e-10 -2.14374e-09 1.76044e-10 -2.22167 -0.733487 0.20892 -2.03217e-16 0.0 -3.88251e-19 12.0129 -24.7531 -11.6642 -1.17207 51.6738 -2.68021 0.456861 -8.21439 -7.31313 2.03217e-16 0.0 3.88251e-19 18.0272 25.5766 -5.99064 0.0756924 32.1193 -2.25156 -0.135817 -20.3566 9.87839
63.0811 5.94013 134.834 -177.677 6.8523 178.775 14.108 18.0882 -5.627 3.22567 -11.6711 0.924714 -6.85862 12.2473 -2.86066 10.1815 -19.8379 -3.08397 -0.0 0.0 0.0 -0.0 0.0 0.0 -1.87127e-13 -3.11111e-14 -3.79554e-13 4.39591 -64.0393 87.3997 -12.1678 -5.56681 21.9352 -0.167026 -11.5445 -1.64515 1.1631e-09 2.80609e-09 -1.38429e-09 2.02881e-09 4.86915e-09 -2.39174e-09 1.16311e-09 2.80609e-09 -1.3843e-09 7.73091 5.47488 0.417314 1.1631e-09 2.80608e-09 -1.38428e-09 2.90554 0.965183 0.102902 1.16311e-09 2.80609e-09 -1.38429e-09 10.2786 0.731801 0.0259123 1.1631e-09 2.80609e-09 -1.38429e-09 2.22167 -0.733487 -0.20892 -1.87172e-13 -3.11089e-14 -3.79673e-13 -6.7709 -68.7941 -84.319 8.0743 -3.05046 -14.2367 0.398427 17.6794 -2.56723 3.50833e-10 -2.70973e-09 -7.00638e-10 5.88891e-10 -4.6885e-09 -1.21748e-09 3.50825e-10 -2.70973e-09 -7.00631e-10 -7.73091 5.47488 -0.417314 3.50832e-10 -2.70973e-09 -7.0064e-10 -2.90554 0.965183 -0.102902 3.50822e-10 -2.70973e-09 -7.00632e-10 -10.2786 0.731801 -0.0259123 3.50836e-10 -2.70973e-09 -7.00637e-10 -2.22167 -0.733487 0.20892 -2.03217e-16 0.0 -3.88251e-19 12.3286 -24.5706 -12.1046 -1.19282 51.7149 -2.78575 0.376061 -8.13381 -6.49057 2.03217e-16 0.0 3.88251e-19 18.4567 26.1214 -6.27268 0.0774911 32.5555 -2.27569 -0.0810476 -20.5621 9.91626
62.9899 5.92123 134.923 -177.261 7.1261 178.694 14.3256 18.0961 -5.5065 3.02768 -11.74 0.99765 -6.77794 12.2185 -2.83661 10.282 -19.6198 -3.01891 -0.0 0.0 0.0 -0.0 0.0 0.0 -2.98541e-13 -4.71739e-14 -4.87461e-13 4.52809 -63.8432 87.3268 -12.1703 -5.56867 21.9402 -0.16758 -11.5668 -1.64841 1.15341e-09 3.41461e-09 -2.15976e-09 2.01989e-09 5.92656e-09 -3.7345e-09 1.15342e-09 3.41462e-09 -2.15978e-09 7.73091 5.47488 0.417314 1.15341e-09 3.41462e-09 -2.15974e-09 2.90554 0.965183 0.102902 1.15341e-09 3.41462e-09 -2.15977e-09 10.2786 0.731801 0.0259123 1.15341e-09 3.41462e-09 -2.15976e-09 2.22167 -0.733487 -0.20892 -2.98591e-13 -4.71744e-14 -4.87627e-13 -8.22089 -68.5959 -85.789 8.10614 -3.06722 -14.2949 0.425398 18.2355 -2.65378 8.28526e-10 -3.06509e-09 -1.43986e-09 1.4019e-09 -5.30215e-09 -2.50174e-09 8.28519e-10 -3.06509e-09 -1.43985e-09 -7.73091 5.47488 -0.417314 8.28526e-10 -3.06509e-09 -1.43986e-09 -2.90554 0.965183 -0.102902 8.28514e-10 -3.06509e-09 -1.43986e-09 -10.2786 0.731801 -0.0259123 8.28528e-10 -3.06509e-09 -1.43986e-09 -2.22167 -0.733487 0.20892 -2.03217e-16 0.0 -3.88251e-19 12.6094 -24.3459 -12.5356 -1.21344 51.749 -2.89209 0.309142 -8.05694 -5.51515 2.03217e-16 0.0 3.88251e-19 18.9169 26.6966 -6.57729 0.0781386 33.0996 -2.3089 -0.0221686 -20.8069 9.84853
62.8684 5.929 135.016 -176.62 7.4259 178.622 14.4574 18.1137 -5.47383 2.90098 -11.7149 1.05319 -6.69273 12.0936 -2.83047 10.3024 -19.393 -3.00365 -0.0 0.0 0.0 -0.0 0.0 0.0 -3.3185e-13 -4.61171e-14 -4.98453e-13 5.16764 -63.7359 87.78 -12.1561 -5.55871 21.9125 -0.16235 -11.4089 -1.62516 1.01787e-09 3.35299e-09 -2.38524e-09 1.7875e-09 5.82064e-09 -4.12536e-09 1.01787e-09 3.353e-09 -2.38525e-09 7.73091 5.47488 0.417314 1.01787e-09 3.35301e-09 -2.38521e-09 2.90554 0.965183 0.102902 1.01787e-09 3.353e-09 -2.38524e-09 10.2786 0.731801 0.0259123 1.01786e-09 3.353e-09 -2.38523e-09 2.22167 -0.733487 -0.20892 -3.31914e-13 -4.61192e-14 -4.98651e-13 -9.18767 -68.4992 -86.7448 8.15254 -3.09201 -14.3797 0.447347 18.6666 -2.72137 1.01214e-09 -2.90882e-09 -1.75267e-09 1.71471e-09 -5.03128e-09 -3.04461e-09 1.01213e-09 -2.90882e-09 -1.75265e-09 -7.73091 5.47488 -0.417314 1.01214e-09 -2.90882e-09 -1.75266e-09 -2.90554 0.965183 -0.102902 1.01213e-09 -2.90882e-09 -1.75266e-09 -10.2786 0.731801 -0.0259123 1.01214e-09 -2.90882e-09 -1.75267e-09 -2.22167 -0.733487 0.20892 -2.03217e-16 0.0 -3.88251e-19 12.7969 -24.0886 -12.8514 -1.23291 51.7805 -2.99662 0.291849 -7.98782 -4.53006 2.03217e-16 0.0 3.88251e-19 19.3625 27.2752 -6.94927 0.0762273 33.7845 -2.35603 0.047615 -21.1051 9.67529
62.6704 5.96597 135.167 -176.484 7.7199 178.539 14.4406 18.1548 -5.52259 2.84033 -11.5244 1.08714 -6.52916 11.7447 -2.86863 10.1733 -19.1158 -3.10338 -0.0 0.0 0.0 -0.0 0.0 0.0 -2.35865e-13 -1.20131e-14 -3.39018e-13 6.58008 -63.8093 88.9881 -12.1137 -5.52882 21.8298 -0.150899 -11.0221 -1.56855 6.30951e-10 2.04864e-09 -1.71337e-09 1.11069e-09 3.558e-09 -2.96316e-09 6.30957e-10 2.04864e-09 -1.71338e-09 7.73091 5.47488 0.417314 6.30951e-10 2.04865e-09 -1.71335e-09 2.90554 0.965183 0.102902 6.30954e-10 2.04864e-09 -1.71337e-09 10.2786 0.731801 0.0259123 6.30949e-10 2.04864e-09 -1.71337e-09 2.22167 -0.733487 -0.20892 -2.35965e-13 -1.20155e-14 -3.39227e-13 -9.56735 -68.6148 -87.1156 8.22544 -3.13143 -14.5131 0.460582 18.9228 -2.76169 7.08956e-10 -1.78965e-09 -1.40878e-09 1.199e-09 -3.09572e-09 -2.44507e-09 7.0895e-10 -1.78965e-09 -1.40876e-09 -7.73091 5.47488 -0.417314 7.08957e-10 -1.78965e-09 -1.40877e-09 -2.90554 0.965183 -0.102902 7.08944e-10 -1.78965e-09 -1.40877e-09 -10.2786 0.731801 -0.0259123 7.08956e-10 -1.78965e-09 -1.40878e-09 -2.22167 -0.733487 0.20892 -2.03217e-16 0.0 -3.88251e-19 12.8284 -23.7656 -13.1055 -1.25428 51.8612 -3.08856 0.310223 -7.96923 -3.41247 2.03217e-16 0.0 3.88251e-19 19.7169 27.8312 -7.39911 0.0798286 34.5722 -2.41065 0.114663 -21.4293 9.42566
62.4392 6.02399 135.258 -176.713 7.9045 178.435 14.336 18.2258 -5.62807 2.81289 -11.2024 1.10697 -6.31916 11.1769 -2.93569 9.95436 -18.7778 -3.27193 -0.0 0.0 0.0 -0.0 0.0 0.0 -5.3186e-14 4.46278e-14 -6.13717e-14 8.69475 -64.0123 90.8714 -12.0481 -5.48263 21.7025 -0.13545 -10.446 -1.48465 3.85418e-11 -1.1775e-10 -4.21728e-10 7.18525e-11 -2.00711e-10 -7.28493e-10 3.85469e-11 -1.17748e-10 -4.21738e-10 7.73091 5.47488 0.417314 3.8542e-11 -1.17741e-10 -4.21717e-10 2.90554 0.965183 0.102902 3.85462e-11 -1.17748e-10 -4.21731e-10 10.2786 0.731801 0.0259123 3.85409e-11 -1.17748e-10 -4.21727e-10 2.22167 -0.733487 -0.20892 -5.33381e-14 4.46256e-14 -6.15798e-14 -9.69505 -68.902 -87.2313 8.3173 -3.18136 -14.6815 0.469563 19.0983 -2.7893 1.01285e-10 8.21987e-12 -6.13375e-10 1.65899e-10 1.34441e-11 -1.06047e-09 1.01278e-10 8.21276e-12 -6.13354e-10 -7.73091 5.47488 -0.417314 1.01286e-10 8.21765e-12 -6.13371e-10 -2.90554 0.965183 -0.102902 1.01275e-10 8.21854e-12 -6.13372e-10 -10.2786 0.731801 -0.0259123 1.01285e-10 8.21876e-12 -6.13378e-10 -2.22167 -0.733487 0.20892 -2.03217e-16 0.0 -3.88251e-19 12.7512 -23.3842 -13.3275 -1.27662 51.9719 -3.17287 0.355374 -7.98355 -2.13934 2.03217e-16 0.0 3.88251e-19 20.0291 28.3843 -7.9051 0.0881499 35.4608 -2.47381 0.177304 -21.7822 9.08885
62.219 6.08721 135.254 -176.831 8.0847 178.362 14.2398 18.2907 -5.8234 2.8545 -10.8838 1.11645 -6.20575 10.6739 -2.98387 9.75943 -18.481 -3.39652 -0.0 0.0 0.0 -0.0 0.0 0.0 1.32961e-13 9.58515e-14 2.08247e-13 10.9861 -64.1302 92.9959 -11.9812 -5.43555 21.5731 -0.118405 -9.75976 -1.38519 -5.1135e-10 -2.14338e-09 9.16338e-10 -8.93684e-10 -3.71587e-09 1.58649e-09 -5.11346e-10 -2.14337e-09 9.1633e-10 7.73091 5.47488 0.417314 -5.1135e-10 -2.14337e-09 9.16338e-10 2.90554 0.965183 0.102902 -5.11344e-10 -2.14337e-09 9.16333e-10 10.2786 0.731801 0.0259123 -5.1135e-10 -2.14337e-09 9.16338e-10 2.22167 -0.733487 -0.20892 1.32764e-13 9.585e-14 2.08044e-13 -9.59974 -69.1682 -87.0541 8.40654 -3.22991 -14.8456 0.47645 19.2345 -2.81073 -5.13998e-10 1.68258e-09 2.69303e-10 -8.79243e-10 2.90913e-09 4.7489e-10 -5.14006e-10 1.68258e-09 2.69324e-10 -7.73091 5.47488 -0.417314 -5.13998e-10 1.68258e-09 2.69303e-10 -2.90554 0.965183 -0.102902 -5.14006e-10 1.68258e-09 2.69303e-10 -10.2786 0.731801 -0.0259123 -5.13998e-10 1.68258e-09 2.69296e-10 -2.22167 -0.733487 0.20892 -2.03217e-16 0.0 -3.88251e-19 12.6663 -23.0151 -13.3772 -1.29411 52.0105 -3.27001 0.466697 -7.94751 -1.00415 2.03217e-16 0.0 3.88251e-19 20.4443 28.9744 -8.4648 0.088324 36.5367 -2.56282 0.257255 -22.2228 8.60405
61.9623 6.19641 135.414 -176.676 8.3975 178.249 14.2476 18.3135 -6.14162 3.00105 -10.7038 1.11929 -6.32954 10.5195 -2.96538 9.69917 -18.3273 -3.36524 -0.0 0.0 0.0 -0.0 0.0 0.0 2.39349e-13 1.13704e-13 3.43599e-13 12.8577 -63.9775 94.8488 -11.935 -5.40309 21.484 -0.101349 -9.04258 -1.28162 -7.70715e-10 -3.02543e-09 1.72749e-09 -1.35057e-09 -5.24785e-09 2.98963e-09 -7.70712e-10 -3.02543e-09 1.72748e-09 7.73091 5.47488 0.417314 -7.70716e-10 -3.02543e-09 1.72748e-09 2.90554 0.965183 0.102902 -7.70709e-10 -3.02543e-09 1.72748e-09 10.2786 0.731801 0.0259123 -7.70715e-10 -3.02543e-09 1.72749e-09 2.22167 -0.733487 -0.20892 2.39141e-13 1.13704e-13 3.43401e-13 -9.31198 -69.2189 -86.5476 8.47186 -3.2653 -14.966 0.483591 19.373 -2.83258 -8.40016e-10 2.43124e-09 8.75021e-10 -1.43107e-09 4.20426e-09 1.52672e-09 -8.40025e-10 2.43123e-09 8.75041e-10 -7.73091 5.47488 -0.417314 -8.40016e-10 2.43124e-09 8.75018e-10 -2.90554 0.965183 -0.102902 -8.40023e-10 2.43124e-09 8.7502e-10 -10.2786 0.731801 -0.0259123 -8.40017e-10 2.43124e-09 8.75012e-10 -2.22167 -0.733487 0.20892 -2.03217e-16 0.0 -3.88251e-19 12.6708 -22.7275 -13.1158 -1.30194 51.875 -3.39955 0.678482 -7.78074 -0.301088 2.03217e-16 0.0 3.88251e-19 21.1095 29.6415 -9.07697 0.0702791 37.8863 -2.69711 0.371113 -22.8097 7.90871
61.6911 6.33801 135.546 -176.324 8.6361 178.093 14.4362 18.2615 -6.6335 3.30757 -10.7167 1.11488 -6.80421 10.8371 -2.85214 9.83075 -18.3658 -3.10707 -0.0 0.0 0.0 -0.0 0.0 0.0 2.20084e-13 8.04063e-14 2.67718e-13 13.9972 -63.4872 96.1927 -11.9197 -5.3924 21.4547 -0.0852168 -8.30923 -1.17608 -5.1729e-10 -2.06473e-09 1.73537e-09 -9.11272e-10 -3.58443e-09 3.00261e-09 -5.17287e-10 -2.06473e-09 1.73536e-09 7.73091 5.47488 0.417314 -5.17292e-10 -2.06473e-09 1.73536e-09 2.90554 0.965183 0.102902 -5.17285e-10 -2.06473e-09 1.73536e-09 10.2786 0.731801 0.0259123 -5.1729e-10 -2.06473e-09 1.73537e-09 2.22167 -0.733487 -0.20892 2.19915e-13 8.04092e-14 2.67522e-13 -8.78364 -68.9789 -85.5969 8.50206 -3.28127 -15.0216 0.491934 19.5312 -2.85763 -7.63607e-10 1.75036e-09 1.02464e-09 -1.29814e-09 3.02714e-09 1.78354e-09 -7.63615e-10 1.75036e-09 1.02466e-09 -7.73091 5.47488 -0.417314 -7.63606e-10 1.75036e-09 1.02464e-09 -2.90554 0.965183 -0.102902 -7.63613e-10 1.75036e-09 1.02464e-09 -10.2786 0.731801 -0.0259123 -7.63607e-10 1.75036e-09 1.02463e-09 -2.22167 -0.733487 0.20892 -2.03217e-16 0.0 -3.88251e-19 12.8447 -22.5561 -12.399 -1.30765 51.5724 -3.55916 1.03676 -7.46808 -0.174743 2.03217e-16 0.0 3.88251e-19 22.0869 30.4724 -9.72253 0.0574911 39.532 -2.89576 0.458889 -23.5233 6.99965
